<mxfile host="app.diagrams.net" modified="2020-12-24T08:58:42.630Z" agent="5.0 (Macintosh; Intel Mac OS X 10_13_2) AppleWebKit/537.36 (KHTML, like Gecko) Chrome/87.0.4280.88 Safari/537.36" etag="Xo4Ht17gIRL7nJDPRfhr" version="13.8.8" type="github">
  <diagram id="A7ijITGLNlA7hDpcoMEq" name="Page-1">
    <mxGraphModel dx="946" dy="614" grid="1" gridSize="10" guides="1" tooltips="1" connect="1" arrows="1" fold="1" page="1" pageScale="1" pageWidth="827" pageHeight="1169" math="0" shadow="0">
      <root>
        <mxCell id="0" />
        <mxCell id="1" parent="0" />
        <mxCell id="eWKHIZOQt_GlZf5i2uKT-1" value="" style="html=1;points=[];perimeter=orthogonalPerimeter;" vertex="1" parent="1">
          <mxGeometry x="250" y="228" width="10" height="80" as="geometry" />
        </mxCell>
        <mxCell id="eWKHIZOQt_GlZf5i2uKT-3" value="编译服务" style="rounded=1;whiteSpace=wrap;html=1;arcSize=40;" vertex="1" parent="1">
          <mxGeometry x="195" y="120" width="120" height="40" as="geometry" />
        </mxCell>
        <mxCell id="eWKHIZOQt_GlZf5i2uKT-5" value="user" style="shape=umlActor;verticalLabelPosition=bottom;verticalAlign=top;html=1;" vertex="1" parent="1">
          <mxGeometry x="110" y="110" width="30" height="60" as="geometry" />
        </mxCell>
        <mxCell id="eWKHIZOQt_GlZf5i2uKT-6" value="" style="html=1;points=[];perimeter=orthogonalPerimeter;" vertex="1" parent="1">
          <mxGeometry x="120" y="236" width="10" height="74" as="geometry" />
        </mxCell>
        <mxCell id="eWKHIZOQt_GlZf5i2uKT-11" value="" style="html=1;points=[];perimeter=orthogonalPerimeter;" vertex="1" parent="1">
          <mxGeometry x="409" y="244" width="10" height="80" as="geometry" />
        </mxCell>
        <mxCell id="eWKHIZOQt_GlZf5i2uKT-12" value="网盘服务" style="rounded=1;whiteSpace=wrap;html=1;arcSize=40;" vertex="1" parent="1">
          <mxGeometry x="354" y="120" width="120" height="40" as="geometry" />
        </mxCell>
        <mxCell id="eWKHIZOQt_GlZf5i2uKT-15" value="" style="html=1;points=[];perimeter=orthogonalPerimeter;" vertex="1" parent="1">
          <mxGeometry x="565" y="244" width="10" height="80" as="geometry" />
        </mxCell>
        <mxCell id="eWKHIZOQt_GlZf5i2uKT-16" value="小程序中心" style="rounded=1;whiteSpace=wrap;html=1;arcSize=40;" vertex="1" parent="1">
          <mxGeometry x="510" y="120" width="120" height="40" as="geometry" />
        </mxCell>
        <mxCell id="eWKHIZOQt_GlZf5i2uKT-18" value="1、上传编译" style="html=1;verticalAlign=bottom;endArrow=block;" edge="1" parent="1" target="eWKHIZOQt_GlZf5i2uKT-1">
          <mxGeometry width="80" relative="1" as="geometry">
            <mxPoint x="130" y="240" as="sourcePoint" />
            <mxPoint x="210" y="240" as="targetPoint" />
          </mxGeometry>
        </mxCell>
        <mxCell id="eWKHIZOQt_GlZf5i2uKT-19" value="2、上传编译包+生成md5签名" style="html=1;verticalAlign=bottom;endArrow=block;entryX=0.1;entryY=0.075;entryDx=0;entryDy=0;entryPerimeter=0;" edge="1" parent="1" target="eWKHIZOQt_GlZf5i2uKT-11">
          <mxGeometry width="80" relative="1" as="geometry">
            <mxPoint x="260" y="250" as="sourcePoint" />
            <mxPoint x="380" y="250" as="targetPoint" />
          </mxGeometry>
        </mxCell>
        <mxCell id="eWKHIZOQt_GlZf5i2uKT-20" value="返回对应的下载地址" style="html=1;verticalAlign=bottom;endArrow=open;dashed=1;endSize=8;entryX=1.3;entryY=0.5;entryDx=0;entryDy=0;entryPerimeter=0;" edge="1" parent="1">
          <mxGeometry relative="1" as="geometry">
            <mxPoint x="409" y="267.5" as="sourcePoint" />
            <mxPoint x="258" y="268" as="targetPoint" />
          </mxGeometry>
        </mxCell>
        <mxCell id="eWKHIZOQt_GlZf5i2uKT-21" value="3、更新小程序信息（更新编译包的md5与下载地址）" style="html=1;verticalAlign=bottom;endArrow=block;" edge="1" parent="1">
          <mxGeometry width="80" relative="1" as="geometry">
            <mxPoint x="260" y="290" as="sourcePoint" />
            <mxPoint x="560" y="290" as="targetPoint" />
          </mxGeometry>
        </mxCell>
        <mxCell id="eWKHIZOQt_GlZf5i2uKT-22" value="返回" style="html=1;verticalAlign=bottom;endArrow=open;dashed=1;endSize=8;" edge="1" parent="1">
          <mxGeometry relative="1" as="geometry">
            <mxPoint x="570" y="308" as="sourcePoint" />
            <mxPoint x="260" y="309" as="targetPoint" />
          </mxGeometry>
        </mxCell>
        <mxCell id="eWKHIZOQt_GlZf5i2uKT-24" value="" style="html=1;points=[];perimeter=orthogonalPerimeter;" vertex="1" parent="1">
          <mxGeometry x="120" y="360" width="10" height="80" as="geometry" />
        </mxCell>
        <mxCell id="eWKHIZOQt_GlZf5i2uKT-31" value="" style="endArrow=none;dashed=1;html=1;" edge="1" parent="1">
          <mxGeometry width="50" height="50" relative="1" as="geometry">
            <mxPoint x="124" y="362" as="sourcePoint" />
            <mxPoint x="124" y="305" as="targetPoint" />
          </mxGeometry>
        </mxCell>
        <mxCell id="eWKHIZOQt_GlZf5i2uKT-32" value="4、获取小程序详情" style="html=1;verticalAlign=bottom;endArrow=block;entryX=0.1;entryY=0.338;entryDx=0;entryDy=0;entryPerimeter=0;" edge="1" parent="1" target="eWKHIZOQt_GlZf5i2uKT-33">
          <mxGeometry width="80" relative="1" as="geometry">
            <mxPoint x="130" y="390" as="sourcePoint" />
            <mxPoint x="540" y="390" as="targetPoint" />
          </mxGeometry>
        </mxCell>
        <mxCell id="eWKHIZOQt_GlZf5i2uKT-33" value="" style="html=1;points=[];perimeter=orthogonalPerimeter;" vertex="1" parent="1">
          <mxGeometry x="565" y="363" width="10" height="74" as="geometry" />
        </mxCell>
        <mxCell id="eWKHIZOQt_GlZf5i2uKT-34" value="5、返回编译包下载地址+md5校验码" style="html=1;verticalAlign=bottom;endArrow=open;dashed=1;endSize=8;entryX=1.2;entryY=0.763;entryDx=0;entryDy=0;entryPerimeter=0;" edge="1" parent="1" target="eWKHIZOQt_GlZf5i2uKT-24">
          <mxGeometry relative="1" as="geometry">
            <mxPoint x="565" y="420" as="sourcePoint" />
            <mxPoint x="255" y="421" as="targetPoint" />
          </mxGeometry>
        </mxCell>
        <mxCell id="eWKHIZOQt_GlZf5i2uKT-39" value="" style="endArrow=none;html=1;entryX=0.5;entryY=1;entryDx=0;entryDy=0;exitX=0.4;exitY=0;exitDx=0;exitDy=0;exitPerimeter=0;" edge="1" parent="1" source="eWKHIZOQt_GlZf5i2uKT-1" target="eWKHIZOQt_GlZf5i2uKT-3">
          <mxGeometry width="50" height="50" relative="1" as="geometry">
            <mxPoint x="390" y="340" as="sourcePoint" />
            <mxPoint x="440" y="290" as="targetPoint" />
          </mxGeometry>
        </mxCell>
        <mxCell id="eWKHIZOQt_GlZf5i2uKT-40" value="" style="endArrow=none;html=1;" edge="1" parent="1">
          <mxGeometry width="50" height="50" relative="1" as="geometry">
            <mxPoint x="414" y="247" as="sourcePoint" />
            <mxPoint x="414" y="157" as="targetPoint" />
          </mxGeometry>
        </mxCell>
        <mxCell id="eWKHIZOQt_GlZf5i2uKT-41" value="" style="endArrow=none;html=1;entryX=0.5;entryY=1;entryDx=0;entryDy=0;" edge="1" parent="1" source="eWKHIZOQt_GlZf5i2uKT-15">
          <mxGeometry width="50" height="50" relative="1" as="geometry">
            <mxPoint x="571" y="240" as="sourcePoint" />
            <mxPoint x="570.5" y="160" as="targetPoint" />
          </mxGeometry>
        </mxCell>
        <mxCell id="eWKHIZOQt_GlZf5i2uKT-42" value="" style="endArrow=none;html=1;entryX=0.5;entryY=1;entryDx=0;entryDy=0;" edge="1" parent="1">
          <mxGeometry width="50" height="50" relative="1" as="geometry">
            <mxPoint x="570" y="361" as="sourcePoint" />
            <mxPoint x="569.5" y="325" as="targetPoint" />
          </mxGeometry>
        </mxCell>
        <mxCell id="eWKHIZOQt_GlZf5i2uKT-43" value="" style="endArrow=none;dashed=1;html=1;" edge="1" parent="1">
          <mxGeometry width="50" height="50" relative="1" as="geometry">
            <mxPoint x="254.5" y="363" as="sourcePoint" />
            <mxPoint x="254.5" y="306" as="targetPoint" />
          </mxGeometry>
        </mxCell>
        <mxCell id="eWKHIZOQt_GlZf5i2uKT-44" value="" style="endArrow=none;dashed=1;html=1;" edge="1" parent="1">
          <mxGeometry width="50" height="50" relative="1" as="geometry">
            <mxPoint x="413" y="381" as="sourcePoint" />
            <mxPoint x="413" y="324" as="targetPoint" />
          </mxGeometry>
        </mxCell>
        <mxCell id="eWKHIZOQt_GlZf5i2uKT-45" value="" style="endArrow=none;html=1;entryX=0.5;entryY=1;entryDx=0;entryDy=0;exitX=0.4;exitY=0;exitDx=0;exitDy=0;exitPerimeter=0;" edge="1" parent="1">
          <mxGeometry width="50" height="50" relative="1" as="geometry">
            <mxPoint x="124.5" y="236" as="sourcePoint" />
            <mxPoint x="125.5" y="168" as="targetPoint" />
          </mxGeometry>
        </mxCell>
        <mxCell id="eWKHIZOQt_GlZf5i2uKT-46" value="" style="endArrow=none;dashed=1;html=1;entryX=0.6;entryY=1.038;entryDx=0;entryDy=0;entryPerimeter=0;" edge="1" parent="1" target="eWKHIZOQt_GlZf5i2uKT-24">
          <mxGeometry width="50" height="50" relative="1" as="geometry">
            <mxPoint x="126" y="530" as="sourcePoint" />
            <mxPoint x="264.5" y="316" as="targetPoint" />
          </mxGeometry>
        </mxCell>
        <mxCell id="eWKHIZOQt_GlZf5i2uKT-47" value="" style="endArrow=none;dashed=1;html=1;" edge="1" parent="1">
          <mxGeometry width="50" height="50" relative="1" as="geometry">
            <mxPoint x="569.5" y="494" as="sourcePoint" />
            <mxPoint x="569.5" y="437" as="targetPoint" />
          </mxGeometry>
        </mxCell>
      </root>
    </mxGraphModel>
  </diagram>
</mxfile>
